<?xml version="1.0" encoding="utf-8"?>
<!-- Generator: Adobe Illustrator 23.1.0, SVG Export Plug-In . SVG Version: 6.00 Build 0)  -->
<svg version="1.1" xmlns="http://www.w3.org/2000/svg" xmlns:xlink="http://www.w3.org/1999/xlink" x="0px" y="0px"
	 viewBox="0 0 362.9 362.9" style="enable-background:new 0 0 362.9 362.9;" xml:space="preserve">
<style type="text/css">
	.st0{fill:#FFFFFF;}
	.st1{fill:#F6CB6F;}
	.st2{fill:#ED7208;}
	.st3{fill:#020203;}
</style>
<g id="Слой_2">
	<circle class="st0" cx="181.4" cy="181.4" r="181.4"/>
</g>
<g id="Слой_1">
	<polygon class="st1" points="262.3,249.7 262.3,300.2 100.6,300.2 100.6,249.7 114.1,249.7 248.8,249.7 	"/>
	<path class="st2" d="M248.8,242.9v6.7H114.1v-6.7v-62.3c0-37.2,30.2-67.3,67.3-67.3c18.6,0,35.4,7.6,47.6,19.7
		c12.2,12.2,19.7,29,19.7,47.6L248.8,242.9L248.8,242.9z"/>
	<path class="st3" d="M100.6,306.9h161.6c3.6,0,6.4-3.2,6.4-6.8v-50.5c0-3.6-2.9-6.6-6.4-6.6h-7c0,0-0.3-0.1-0.3-0.2v-62.3
		c0-19.7-7.6-38.3-21.5-52.2c-13.9-13.9-32.3-21.6-52-21.6c-40.7,0-73.7,33.1-73.7,73.8v62.3c0,0.1-0.3,0.2-0.3,0.2h-7
		c-3.6,0-6.4,2.9-6.4,6.6v50.5C94.2,303.7,97,306.9,100.6,306.9z M120.9,242.9v-62.3c0-33.5,27.2-60.8,60.7-60.8
		c16.2,0,31.3,6.3,42.8,17.8c11.5,11.5,17.6,26.8,17.6,43v62.3c0,0.1,0.3,0.2,0.3,0.2H120.6C120.6,243.1,120.9,243,120.9,242.9z
		 M107.2,256.1h148.5v37.8H107.2L107.2,256.1L107.2,256.1z"/>
	<path class="st3" d="M187.9,78V37.6c0-3.6-2.9-6.5-6.5-6.5c-3.6,0-6.5,2.9-6.5,6.5V78c0,3.6,2.9,6.5,6.5,6.5
		C185,84.5,187.9,81.6,187.9,78z"/>
	<path class="st3" d="M312.5,148.7c0-3.6-2.9-6.5-6.5-6.5h-40.4c-3.6,0-6.5,2.9-6.5,6.5c0,3.6,2.9,6.5,6.5,6.5H306
		C309.7,155.2,312.5,152.3,312.5,148.7z"/>
	<path class="st3" d="M50.3,148.7c0,3.6,2.9,6.5,6.5,6.5h40.4c3.6,0,6.5-2.9,6.5-6.5c0-3.6-2.9-6.5-6.5-6.5H56.9
		C53.2,142.2,50.3,145.1,50.3,148.7z"/>
	<path class="st3" d="M130.1,104.7c1.7,0,3.3-0.7,4.6-1.9c2.5-2.5,2.5-6.6,0-9.2L106.1,65c-2.5-2.5-6.6-2.5-9.2,0s-2.5,6.6,0,9.2
		l28.6,28.6C126.7,104,128.4,104.7,130.1,104.7z"/>
	<path class="st3" d="M237.4,102.8L266,74.2c2.5-2.5,2.5-6.6,0-9.2c-2.5-2.5-6.6-2.5-9.2,0l-28.6,28.6c-2.5,2.5-2.5,6.6,0,9.2
		c1.3,1.3,2.9,1.9,4.6,1.9C234.5,104.7,236.1,104,237.4,102.8z"/>
</g>
</svg>
