<?xml version="1.0" encoding="iso-8859-1"?>
<!-- Generator: Adobe Illustrator 19.0.0, SVG Export Plug-In . SVG Version: 6.00 Build 0)  -->
<svg version="1.1" id="Capa_1" xmlns="http://www.w3.org/2000/svg" xmlns:xlink="http://www.w3.org/1999/xlink" x="0px" y="0px"
	 viewBox="0 0 423.6 423.6" style="enable-background:new 0 0 423.6 423.6;" xml:space="preserve">
<polygon style="fill:#F6CB6E;" points="335.9,335.7 335.9,413.2 87.7,413.2 87.7,335.7 108.4,335.7 315.2,335.7 "/>
<path style="fill:#EC7100;" d="M315.2,325.3v10.3H108.4v-10.3v-95.7c0-57.1,46.3-103.4,103.4-103.4c28.5,0,54.4,11.6,73.1,30.3
	c18.7,18.7,30.3,44.6,30.3,73.1V325.3z"/>
<path d="M87.7,423.6h248.2c5.5,0,9.9-4.9,9.9-10.4v-77.6c0-5.5-4.4-10.1-9.9-10.1h-10.7c0,0-0.4-0.2-0.4-0.3v-95.6
	c0-30.3-11.6-58.8-33-80.2s-49.6-33.2-79.9-33.2c-62.5,0-113.1,50.9-113.1,113.4v95.7c0,0.1-0.4,0.3-0.4,0.3H87.7
	c-5.5,0-9.9,4.5-9.9,10.1v77.6C77.8,418.7,82.2,423.6,87.7,423.6z M118.8,325.3v-95.7c0-51.5,41.7-93.4,93.2-93.4
	c24.9,0,48.1,9.7,65.7,27.4c17.7,17.7,27.1,41.1,27.1,66v95.7c0,0.1,0.4,0.3,0.4,0.3H118.4C118.4,325.6,118.8,325.4,118.8,325.3z
	 M97.8,345.6h228v58h-228V345.6z"/>
<path d="M221.8,72V10c0-5.5-4.5-10-10-10s-10,4.5-10,10v62.1c0,5.5,4.5,10,10,10S221.8,77.6,221.8,72z"/>
<path d="M413.1,180.6c0-5.5-4.5-10-10-10H341c-5.5,0-10,4.5-10,10s4.5,10,10,10h62.1C408.7,190.6,413.1,186.1,413.1,180.6z"/>
<path d="M10.5,180.6c0,5.5,4.5,10,10,10h62.1c5.5,0,10-4.5,10-10s-4.5-10-10-10H20.5C14.9,170.6,10.5,175.1,10.5,180.6z"/>
<path d="M132.9,113c2.6,0,5.1-1,7.1-2.9c3.9-3.9,3.9-10.2,0-14.1L96.1,52.1c-3.9-3.9-10.2-3.9-14.1,0s-3.9,10.2,0,14.1l43.9,43.9
	C127.8,112,130.3,113,132.9,113z"/>
<path d="M297.8,110.1l43.9-43.9c3.9-3.9,3.9-10.2,0-14.1s-10.2-3.9-14.1,0L283.7,96c-3.9,3.9-3.9,10.2,0,14.1c2,2,4.5,2.9,7.1,2.9
	C293.3,113,295.8,112,297.8,110.1z"/>
<g>
</g>
<g>
</g>
<g>
</g>
<g>
</g>
<g>
</g>
<g>
</g>
<g>
</g>
<g>
</g>
<g>
</g>
<g>
</g>
<g>
</g>
<g>
</g>
<g>
</g>
<g>
</g>
<g>
</g>
</svg>
