<svg width="154" height="158" viewBox="0 0 154 158" fill="none" xmlns="http://www.w3.org/2000/svg">
<path d="M41.4032 100.719C44.4151 100.719 46.8567 98.2906 46.8567 95.2956C46.8567 92.3005 44.4151 89.8726 41.4032 89.8726C38.3913 89.8726 35.9497 92.3005 35.9497 95.2956C35.9497 98.2906 38.3913 100.719 41.4032 100.719Z" stroke="black" stroke-width="5" stroke-miterlimit="10"/>
<path d="M28.0531 95.2958L6.44434 95.1829" stroke="black" stroke-width="4.87" stroke-miterlimit="10"/>
<path d="M9 54L59 24" stroke="black" stroke-width="5.31" stroke-miterlimit="10"/>
<path d="M58.7011 27.0534C60.1929 27.0534 61.4022 25.6983 61.4022 24.0267C61.4022 22.3551 60.1929 21 58.7011 21C57.2093 21 56 22.3551 56 24.0267C56 25.6983 57.2093 27.0534 58.7011 27.0534Z" fill="black" stroke="black" stroke-width="4.32" stroke-miterlimit="10"/>
<path d="M19.875 59.9712V68.5318" stroke="black" stroke-width="4.87" stroke-miterlimit="10"/>
<path d="M12.6602 59.9712V68.5318" stroke="black" stroke-width="4.87" stroke-miterlimit="10"/>
<path d="M27.4102 59.9712V68.5318" stroke="black" stroke-width="4.87" stroke-miterlimit="10"/>
<path d="M34.0581 59.9712V68.5318" stroke="black" stroke-width="4.87" stroke-miterlimit="10"/>
<path d="M41.9858 59.9712V68.5318" stroke="black" stroke-width="4.87" stroke-miterlimit="10"/>
<path d="M48.7988 59.9712V68.5318" stroke="black" stroke-width="4.87" stroke-miterlimit="10"/>
<path d="M55.3354 59.9712V67.8377" stroke="black" stroke-width="4.87" stroke-miterlimit="10"/>
<path d="M62.2163 59.9712V68.5318" stroke="black" stroke-width="4.87" stroke-miterlimit="10"/>
<path d="M69.374 89.3123L136.951 108.571" stroke="black" stroke-width="3.69" stroke-miterlimit="10"/>
<path d="M85.3369 93.9465V108.571" stroke="black" stroke-width="6.08" stroke-miterlimit="10"/>
<path d="M71.7362 77.0288L72.1485 78.0206L74.9651 76.5832C75.0247 76.5549 75.077 76.5102 75.1173 76.4533C75.1575 76.3964 75.1843 76.3291 75.1952 76.2575C75.2062 76.186 75.2009 76.1125 75.1799 76.0438C75.1589 75.9752 75.1228 75.9135 75.075 75.8645L72.1998 72.9487L70.7778 73.6777L71.7362 77.0288Z" stroke="black" stroke-width="1.08" stroke-miterlimit="10"/>
<path d="M71.7041 77.4039L72.0713 77.2683L71.8 76.3459L71.4328 76.4815L71.7041 77.4039Z" fill="black" stroke="black" stroke-width="1.13" stroke-miterlimit="10"/>
<path d="M84.8218 93.9138C83.501 93.5324 82.3434 92.639 81.5545 91.3922C81.0409 90.6099 80.6823 89.7138 80.5024 88.7637C80.3226 87.8136 80.3258 86.8315 80.5118 85.883C80.3872 85.8111 80.2919 85.7433 80.1911 85.6982C77.7484 84.6119 75.3112 83.5195 72.8612 82.4579C72.4947 82.2978 72.4305 82.1232 72.5222 81.7084C73.1489 78.8583 73.7499 76.0021 74.3547 73.1479C74.5929 72.0349 74.8366 70.922 75.0877 69.7598L107.198 78.5154L108.884 70.7495C109.022 70.7645 109.159 70.7885 109.295 70.8214C112.486 71.7563 115.673 72.703 118.857 73.6612C120.36 74.0749 121.729 74.9544 122.808 76.1992C124.426 78.1088 126.007 80.0602 127.55 82.0534C128.028 82.7089 128.649 83.2141 129.353 83.5195C131.884 84.5873 134.429 85.6242 136.914 86.8234C138.509 87.5983 140.046 88.515 141.51 89.5647C143.025 90.6448 143.366 91.9692 142.939 93.9446C142.459 96.1636 141.977 98.384 141.493 100.606C141.38 101.125 141.268 101.645 141.145 102.207C139.604 102.014 138.109 101.842 136.621 101.63C136.3 101.585 136.17 101.686 136.056 102.006C135.582 103.275 134.776 104.353 133.745 105.099C132.714 105.846 131.506 106.226 130.279 106.189C127.781 106.084 125.498 104.154 124.831 101.478C124.598 100.548 124.558 99.5544 124.422 98.5462L92.0547 89.7166C90.6657 93.384 87.4405 94.7166 84.8218 93.9138ZM128.329 93.0021C129.567 92.4223 130.946 92.336 132.234 92.7577C134.442 93.4559 136.725 95.9466 136.555 99.9651L139.993 100.376L140.79 96.729C139.874 96.4764 138.957 96.2095 138.056 95.9959C137.918 95.9766 137.791 95.9048 137.695 95.7926C137.599 95.6804 137.541 95.5347 137.53 95.3799C137.249 93.8789 138.056 92.232 139.379 91.8891C139.888 91.7598 140.467 91.9836 141.013 92.0513C141.178 92.0719 141.343 92.1088 141.508 92.1396L141.618 91.9856C141.327 91.6407 141.088 91.191 140.737 90.9589C139.41 90.1027 138.092 89.1992 136.689 88.5318C134.026 87.2628 131.314 86.1212 128.607 84.9733C127.818 84.6341 127.123 84.0675 126.592 83.3306C125.126 81.4004 123.599 79.5462 122.078 77.6776C120.979 76.3183 119.549 75.5544 117.997 75.0883C115.459 74.3265 112.914 73.5975 110.37 72.8542C110.266 72.8255 110.16 72.809 110.004 72.7762L109.157 76.6776L108.318 80.5503L76.1981 71.7824L76.079 72.3368L77.699 72.7782L76.4529 78.5175L74.8366 78.076L74.1513 81.2238L80.9974 84.2649C81.5427 83.1024 82.3557 82.1247 83.3522 81.4333C87.0721 78.9199 91.7816 81.4908 92.3644 86.3614C92.4129 86.7876 92.4258 87.2179 92.4029 87.6468C92.3864 87.9836 92.478 88.1191 92.7694 88.1951C95.0026 88.7892 97.2351 89.3922 99.4671 90.0041L109.115 92.6386L118.811 95.2834C120.735 95.8077 122.659 96.3292 124.583 96.8481C124.675 96.8727 124.766 96.8871 124.911 96.9179C125.604 95.078 126.709 93.7433 128.329 93.0021ZM90.8434 88.4456C91.033 87.4608 90.9585 86.4352 90.6293 85.4977C90.3001 84.5602 89.7309 83.7527 88.9932 83.1768C88.2556 82.6008 87.3824 82.2821 86.4836 82.2606C85.5847 82.2392 84.7003 82.5161 83.9414 83.0564C83.1826 83.5967 82.5833 84.3764 82.2188 85.2974C81.8544 86.2183 81.7411 87.2395 81.8931 88.2324C82.0452 89.2253 82.4559 90.1457 83.0735 90.8778C83.6911 91.61 84.4881 92.1211 85.3643 92.347C87.7905 92.9877 90.2533 91.2341 90.8434 88.4456ZM134.962 100.544C135.163 99.5622 135.099 98.5358 134.78 97.5942C134.46 96.6527 133.899 95.8383 133.167 95.2537C132.435 94.6691 131.565 94.3405 130.666 94.3092C129.768 94.278 128.881 94.5456 128.118 95.0782C127.355 95.6108 126.75 96.3847 126.379 97.3021C126.008 98.2196 125.888 99.2397 126.033 100.234C126.179 101.228 126.584 102.151 127.197 102.887C127.811 103.624 128.605 104.14 129.48 104.372C131.882 105.039 134.376 103.304 134.962 100.544ZM141.543 93.2649C140.931 93.1249 140.312 93.0242 139.69 92.963C139.102 92.9405 138.353 94.0575 138.457 94.7043C138.468 94.7598 138.49 94.8117 138.522 94.8559C138.554 94.9001 138.594 94.9354 138.64 94.9589C139.428 95.1889 140.22 95.4004 141.022 95.6201L141.543 93.2649ZM75.8445 73.4559L75.0785 76.9815L75.7254 77.1581L76.4913 73.6325L75.8445 73.4559Z" fill="black" stroke="black" stroke-width="0.35" stroke-miterlimit="10"/>
<path d="M111.191 80.6571L112.569 74.3101C114.219 74.7577 115.811 75.1745 117.402 75.6345C118.501 75.9569 119.588 76.3819 120.473 77.2485C122.561 79.3167 124.288 81.8017 125.565 84.577L111.191 80.6571ZM119.736 78.0164C119.232 77.5874 118.664 77.262 118.058 77.0554C116.513 76.4928 114.943 76.0144 113.334 75.4846L112.386 79.8357L123.564 82.8809C122.399 81.0534 121.228 79.3594 119.736 78.0164Z" fill="black" stroke="black" stroke-width="0.35" stroke-miterlimit="10"/>
<path d="M93.6658 86.4517C93.6347 86.6365 93.609 86.7843 93.5815 86.9486L124.787 95.4578L124.893 94.965L93.6658 86.4517Z" fill="black" stroke="black" stroke-width="0.35" stroke-miterlimit="10"/>
<path d="M126.357 86.0616L125.932 85.9446L124.466 92.6961L124.882 92.8501L126.357 86.0616Z" fill="black" stroke="black" stroke-width="0.35" stroke-miterlimit="10"/>
<path d="M107.675 88.1354L108.107 88.2525L109.573 81.4989L109.139 81.3818L107.675 88.1354Z" fill="black" stroke="black" stroke-width="0.35" stroke-miterlimit="10"/>
<path d="M87.1821 83.694C87.8251 83.853 88.4112 84.2232 88.8656 84.7571C89.3201 85.2911 89.6222 85.9647 89.7334 86.6919C89.8447 87.4191 89.76 88.167 89.4903 88.8401C89.2205 89.5132 88.7779 90.0809 88.2189 90.4709C87.66 90.8608 87.0099 91.0553 86.3519 91.0294C85.6938 91.0036 85.0576 90.7586 84.5243 90.3258C83.9911 89.8929 83.585 89.2919 83.358 88.5993C83.1309 87.9067 83.0932 87.154 83.2496 86.4373C83.4471 85.4896 83.9722 84.6684 84.7095 84.1541C85.4468 83.6398 86.3361 83.4743 87.1821 83.694V83.694ZM85.8994 89.8356C86.3469 89.9544 86.8158 89.9215 87.2465 89.7411C87.6773 89.5607 88.0504 89.2409 88.3187 88.8223C88.5869 88.4037 88.738 87.9053 88.7529 87.3903C88.7678 86.8753 88.6458 86.3669 88.4023 85.9297C88.1589 85.4926 87.8049 85.1464 87.3855 84.9351C86.9661 84.7238 86.5001 84.6569 86.0467 84.743C85.5933 84.8291 85.1729 85.0642 84.839 85.4185C84.5051 85.7728 84.2727 86.2304 84.1714 86.733C84.0354 87.4025 84.1419 88.1051 84.4676 88.6867C84.7932 89.2683 85.3114 89.6815 85.9086 89.8356H85.8994Z" fill="black" stroke="black" stroke-width="0.35" stroke-miterlimit="10"/>
<path d="M129.795 102.957C128.058 102.52 126.96 100.511 127.371 98.5176C127.527 97.8221 127.863 97.1937 128.337 96.7113C128.81 96.2288 129.401 95.9138 130.033 95.8058C130.666 95.6977 131.313 95.8013 131.894 96.1037C132.474 96.4061 132.962 96.8937 133.296 97.5055C133.63 98.1173 133.796 98.826 133.772 99.5427C133.748 100.259 133.536 100.952 133.162 101.535C132.788 102.117 132.269 102.562 131.67 102.815C131.071 103.068 130.419 103.118 129.795 102.957ZM129.962 101.848C130.407 101.986 130.878 101.972 131.315 101.808C131.753 101.644 132.137 101.338 132.418 100.928C132.7 100.519 132.866 100.025 132.895 99.5087C132.925 98.9929 132.816 98.4789 132.584 98.0324C132.351 97.586 132.005 97.2273 131.59 97.0023C131.175 96.7772 130.709 96.696 130.252 96.769C129.796 96.8421 129.369 97.066 129.026 97.4122C128.684 97.7584 128.441 98.2112 128.329 98.7127C128.18 99.3709 128.267 100.069 128.572 100.655C128.878 101.242 129.377 101.67 129.962 101.848Z" fill="black" stroke="black" stroke-width="0.35" stroke-miterlimit="10"/>
<path d="M59 24L38 60" stroke="black" stroke-width="4.11" stroke-miterlimit="10"/>
<path d="M5.81592 68.5317H69.374" stroke="black" stroke-width="4.87" stroke-miterlimit="10"/>
<path d="M59 24L71 73" stroke="black" stroke-width="0.97" stroke-miterlimit="10"/>
<path d="M4.82845 75.0925H69.6015V79.0001H4.72949L4.82845 75.0925Z" fill="#EC7100"/>
<path d="M41.4029 108.571C48.7758 108.571 54.7526 102.627 54.7526 95.2957C54.7526 87.964 48.7758 82.0205 41.4029 82.0205C34.0301 82.0205 28.0532 87.964 28.0532 95.2957C28.0532 102.627 34.0301 108.571 41.4029 108.571Z" stroke="black" stroke-width="5" stroke-miterlimit="10"/>
<path d="M77.0011 153.183C116.916 153.183 149.273 119.97 149.273 78.9999C149.273 38.0299 116.916 4.81714 77.0011 4.81714C37.0866 4.81714 4.72949 38.0299 4.72949 78.9999C4.72949 119.97 37.0866 153.183 77.0011 153.183Z" stroke="black" stroke-width="7.95" stroke-miterlimit="10"/>
<path d="M7.69238 60.0759H64.0451C67.1127 60.0759 69.5994 62.4394 69.5994 65.3531V90.5934C69.5994 93.4866 67.1475 95.8398 64.1019 95.8706L54.6591 95.963" stroke="black" stroke-width="4.87" stroke-miterlimit="10"/>
</svg>
